<?xml version="1.0" encoding="UTF-8" standalone="no"?>
<!-- Created with Inkscape (http://www.inkscape.org/) -->

<svg
   xmlns:dc="http://purl.org/dc/elements/1.1/"
   xmlns:cc="http://creativecommons.org/ns#"
   xmlns:rdf="http://www.w3.org/1999/02/22-rdf-syntax-ns#"
   xmlns:svg="http://www.w3.org/2000/svg"
   xmlns="http://www.w3.org/2000/svg"
   xmlns:sodipodi="http://sodipodi.sourceforge.net/DTD/sodipodi-0.dtd"
   xmlns:inkscape="http://www.inkscape.org/namespaces/inkscape"
   width="511.56088"
   height="114.13239"
   id="svg2"
   version="1.1"
   inkscape:version="0.48.4 r9939"
   sodipodi:docname="histogrammar-logo-paths.svg"
   inkscape:export-filename="/home/pivarski/diana-github/histogrammar-landing/histogrammar-logo.png"
   inkscape:export-xdpi="157.71158"
   inkscape:export-ydpi="157.71158">
  <defs
     id="defs4" />
  <sodipodi:namedview
     id="base"
     pagecolor="#ffffff"
     bordercolor="#666666"
     borderopacity="1.0"
     inkscape:pageopacity="0"
     inkscape:pageshadow="2"
     inkscape:zoom="0.98994949"
     inkscape:cx="169.11766"
     inkscape:cy="28.256475"
     inkscape:document-units="px"
     inkscape:current-layer="layer1"
     showgrid="false"
     fit-margin-top="10"
     fit-margin-left="10"
     fit-margin-right="10"
     fit-margin-bottom="10"
     inkscape:window-width="331"
     inkscape:window-height="715"
     inkscape:window-x="1029"
     inkscape:window-y="0"
     inkscape:window-maximized="0" />
  <metadata
     id="metadata7">
    <rdf:RDF>
      <cc:Work
         rdf:about="">
        <dc:format>image/svg+xml</dc:format>
        <dc:type
           rdf:resource="http://purl.org/dc/dcmitype/StillImage" />
        <dc:title></dc:title>
      </cc:Work>
    </rdf:RDF>
  </metadata>
  <g
     inkscape:label="Layer 1"
     inkscape:groupmode="layer"
     id="layer1"
     transform="translate(-57.996009,-464.66902)">
    <g
       style="font-size:14px;font-style:normal;font-variant:normal;font-weight:normal;font-stretch:normal;text-align:center;line-height:104.99999523%;letter-spacing:0px;word-spacing:0px;text-anchor:middle;fill:#000000;fill-opacity:1;stroke:none;font-family:DejaVu Sans;-inkscape-font-specification:Sans"
       id="text2985" />
    <g
       style="font-size:72px;font-style:normal;font-variant:normal;font-weight:normal;font-stretch:normal;text-align:center;line-height:104.99999523%;letter-spacing:0px;word-spacing:0px;text-anchor:middle;fill:#000000;fill-opacity:1;stroke:none;font-family:DejaVu Sans;-inkscape-font-specification:Sans"
       id="text2989">
      <path
         d="M 103.70801,503.39702 C 103.70801,496.12502 99.748002,491.94902 93.052009,491.94902 C 87.796014,491.94902 84.556004,494.39702 80.020009,497.42102 L 80.020009,475.10102 L 79.516009,474.66902 L 68.284009,476.46902 L 68.284009,478.26902 L 71.020009,478.62902 C 72.892007,478.91702 73.324009,479.27702 73.324009,481.86902 L 73.324009,521.82902 C 73.396009,525.35701 73.036004,525.64502 67.996009,526.00502 L 67.996009,528.09302 L 85.492009,528.09302 L 85.492009,526.00502 C 80.524014,525.64502 80.092009,525.35701 80.092009,521.82902 L 80.092009,504.98102 C 80.092009,503.18102 80.164009,502.17302 80.740009,501.09302 C 82.252007,498.21302 85.564013,495.83702 89.380009,495.83702 C 94.276004,495.83702 96.940009,498.57302 96.940009,504.83702 L 96.940009,521.82902 C 96.940009,525.35701 96.580004,525.64502 91.540009,526.00502 L 91.540009,528.09302 L 109.10801,528.09302 L 109.10801,526.00502 C 104.14001,525.64502 103.70801,525.35701 103.70801,521.82902 L 103.70801,503.39702"
         style="font-family:Utopia;-inkscape-font-specification:Utopia"
         id="path2991" />
      <path
         d="M 112.88238,493.74902 L 112.88238,495.54902 L 115.61838,495.90902 C 117.49038,496.19702 117.92238,496.55702 117.92238,499.14902 L 117.92238,521.82902 C 117.92238,525.50101 117.70638,525.64502 112.52238,526.00502 L 112.52238,528.09302 L 130.09038,528.09302 L 130.09038,526.00502 C 124.97839,525.64502 124.69038,525.50101 124.69038,521.82902 L 124.69038,492.38102 L 124.18638,491.94902 L 112.88238,493.74902 M 121.23438,476.61302 C 118.64239,476.61302 116.84238,478.48502 116.84238,481.07702 C 116.84238,483.59702 118.64239,485.39702 121.23438,485.39702 C 123.89838,485.39702 125.55438,483.59702 125.62638,481.07702 C 125.62638,478.48502 123.89838,476.61302 121.23438,476.61302"
         style="font-family:Utopia;-inkscape-font-specification:Utopia"
         id="path2993" />
      <path
         d="M 157.59551,502.82102 L 157.59551,494.39702 C 155.21951,492.66902 151.54751,491.94902 148.30751,491.94902 C 140.53152,491.94902 135.27551,495.62102 135.20351,502.46102 C 135.27551,508.43701 140.09951,511.10102 146.07551,512.90102 C 149.31551,513.90902 153.85151,515.56502 153.85151,520.46102 C 153.85151,524.13301 150.9715,526.43702 147.15551,526.43702 C 141.32351,526.43702 138.08351,522.18901 136.64351,516.06902 L 134.55551,516.06902 L 135.27551,525.50102 C 137.86751,527.80502 142.25951,528.95702 146.50751,528.95702 C 155.0755,528.95702 159.97151,524.42101 159.97151,518.30102 C 159.97151,511.96502 156.0835,509.08502 148.66751,506.78102 C 145.71551,505.84502 140.96351,504.33301 140.96351,500.30102 C 141.03551,496.55702 143.84351,494.46902 147.44351,494.46902 C 152.5555,494.46902 155.00351,498.42902 155.50751,502.82102 L 157.59551,502.82102"
         style="font-family:Utopia;-inkscape-font-specification:Utopia"
         id="path2995" />
      <path
         d="M 186.00288,495.69302 L 186.00288,492.81302 L 176.71488,492.81302 L 176.71488,483.74102 L 174.62688,483.74102 L 170.23488,492.81302 L 164.76288,492.81302 L 164.76288,495.69302 L 169.94688,495.69302 L 169.94688,520.74902 C 169.94688,528.09301 175.41889,528.95702 177.93888,528.95702 C 181.61088,528.95702 185.06689,527.08502 187.15488,525.78902 L 186.57888,524.27702 C 184.85089,524.99702 183.26688,525.21302 181.46688,525.21302 C 179.01889,525.21302 176.71488,523.48501 176.71488,518.01302 L 176.71488,495.69302 L 186.00288,495.69302"
         style="font-family:Utopia;-inkscape-font-specification:Utopia"
         id="path2997" />
      <path
         d="M 208.01688,491.94902 C 196.4969,491.94902 190.80888,498.78903 190.80888,510.45302 C 190.80888,522.11701 196.4969,528.95702 208.01688,528.95702 C 219.68087,528.95702 225.29688,522.11701 225.29688,510.45302 C 225.29688,498.78903 219.68087,491.94902 208.01688,491.94902 M 198.29688,510.45302 C 198.29688,500.51703 201.46489,494.46902 208.01688,494.46902 C 214.71288,494.46902 217.80888,500.51703 217.80888,510.45302 C 217.80888,520.38901 214.71288,526.43702 208.01688,526.43702 C 201.46489,526.43702 198.29688,520.38901 198.29688,510.45302"
         style="font-family:Utopia;-inkscape-font-specification:Utopia"
         id="path2999" />
      <path
         d="M 238.34126,514.55702 C 241.14926,514.55702 242.80526,512.61301 242.87726,510.02102 C 242.87726,507.35702 241.14926,505.34102 238.34126,505.34102 C 235.60526,505.34102 233.80526,507.35702 233.80526,510.02102 C 233.80526,512.61301 235.60526,514.55702 238.34126,514.55702"
         style="font-family:Utopia;-inkscape-font-specification:Utopia"
         id="path3001" />
      <path
         d="M 272.37026,494.46902 C 274.53026,494.46902 278.13026,495.54902 278.13026,500.51702 C 278.13026,507.21301 274.67425,512.61302 269.27426,512.61302 C 265.45826,512.61302 263.29826,510.02101 263.29826,506.42102 C 263.29826,501.88502 265.53027,494.46902 272.37026,494.46902 M 280.79426,494.10902 C 278.92226,492.88502 275.39426,491.94902 271.86626,491.94902 C 260.05827,491.94902 256.53026,500.08502 256.53026,505.19702 C 256.53026,510.52501 260.41826,513.26102 262.57826,514.05302 L 262.57826,514.19702 C 260.34626,515.13302 256.02626,516.71702 256.02626,519.59702 C 256.02626,521.97302 258.18626,523.62902 261.13826,524.99702 L 261.13826,525.14102 C 256.24226,526.00502 250.05026,529.02902 250.05026,535.00502 C 250.05026,541.41301 256.74627,545.51702 265.89026,545.51702 C 275.61025,545.51702 283.45826,541.41301 283.45826,533.49302 C 283.45826,528.09302 279.35425,524.20502 270.85826,522.18902 C 264.81026,520.74902 262.14626,519.74102 262.14626,517.72502 C 262.14626,516.35702 263.58626,515.34902 265.31426,514.91702 C 266.75426,515.13302 268.12226,515.13302 269.20226,515.13302 C 279.21025,515.13302 284.75426,509.66101 284.75426,502.24502 C 284.75426,500.30102 284.17826,498.50102 283.24226,497.27702 L 289.29026,496.41302 L 291.66626,491.87702 L 291.23426,491.22902 L 280.79426,494.10902 M 267.47426,542.99702 C 261.21027,542.99702 256.67426,539.54101 256.67426,534.35702 C 256.67426,529.17302 261.35426,526.72502 264.30626,526.29302 C 268.84225,526.94102 277.33826,528.81302 277.33826,534.86102 C 277.33826,540.33301 272.87425,542.99702 267.47426,542.99702"
         style="font-style:italic"
         id="path3003" />
      <path
         d="M 297.42963,528.09302 C 298.65363,523.41302 300.02163,517.58101 301.17363,513.40502 C 303.76563,503.97303 307.36564,497.78102 310.10163,497.78102 C 312.33363,497.78102 312.83764,499.58102 315.14163,499.58102 C 316.94163,499.58102 318.52563,497.20502 318.52563,495.11702 C 318.59763,493.17302 317.58963,491.94902 315.28563,491.94902 C 311.25364,491.94902 306.28563,496.48503 302.39763,504.26102 L 302.25363,504.26102 L 305.49363,492.30902 L 305.13363,491.94902 L 292.74963,493.96502 L 292.31763,495.69302 L 296.78163,496.05302 C 298.50963,496.19702 298.36563,497.20502 297.86163,499.50902 L 291.23763,528.95702 L 297.42963,528.09302"
         style="font-style:italic"
         id="path3005" />
      <path
         d="M 347.35038,496.05302 C 346.05439,501.38101 343.46238,508.50902 339.64638,514.26902 C 335.61439,520.38901 331.22238,525.21302 327.76638,525.21302 C 325.39039,525.21302 324.59838,522.98101 324.59838,520.17302 C 324.59838,512.25303 331.6544,494.46902 342.95838,494.46902 C 344.68638,494.46902 346.27038,495.04502 347.35038,496.05302 M 348.43038,492.52502 L 348.07038,493.46102 C 346.84639,492.59702 344.75838,491.94902 342.81438,491.94902 C 325.6784,491.94902 317.47038,510.88503 317.47038,520.38902 C 317.47038,524.70901 319.48639,528.95702 324.38238,528.95702 C 332.08638,528.95702 338.78239,520.02901 342.95838,512.68502 L 343.10238,512.68502 L 340.65438,520.89302 C 339.14239,526.00501 339.93439,528.95702 343.82238,528.95702 C 349.29438,528.95702 353.32639,524.06101 355.77438,518.58902 L 354.04638,517.58102 C 352.75039,520.10102 349.58238,525.21302 347.56638,525.21302 C 346.12639,525.21302 346.19838,523.55702 346.84638,521.25302 L 354.47838,492.52502 L 348.43038,492.52502"
         style="font-style:italic"
         id="path3007" />
      <path
         d="M 366.39776,528.09302 C 368.48576,520.74902 369.63776,516.57301 371.14976,512.75702 C 373.59776,506.49302 380.65376,495.69302 386.62976,495.69302 C 388.78976,495.69302 389.94176,497.27702 388.78976,501.74102 L 383.46176,521.90102 L 381.58976,528.95702 L 387.85376,528.09302 C 389.94176,520.74902 391.09376,516.57301 392.96576,512.18102 C 395.62976,506.06102 402.18176,495.69302 408.22976,495.69302 C 410.60576,495.69302 411.61376,497.63702 410.67776,500.73302 L 404.48576,521.90102 C 403.18976,526.36501 404.62976,528.95702 408.22976,528.95702 C 413.48575,528.95702 417.51776,524.06101 419.96576,518.58902 L 418.23776,517.58102 C 416.94176,520.10102 413.77376,525.21302 411.75776,525.21302 C 410.31776,525.21302 410.38976,523.55702 411.03776,521.25302 L 416.58176,502.38902 C 418.23776,496.70102 417.30175,491.94902 411.32576,491.94902 C 404.84577,491.94902 398.29375,497.92503 393.10976,507.21302 L 392.82176,507.21302 L 394.26176,502.67702 C 396.42176,495.76502 394.98175,491.94902 389.94176,491.94902 C 383.31777,491.94902 376.62175,498.14103 371.65376,507.21302 L 371.43776,507.21302 L 375.97376,492.30902 L 375.61376,491.94902 L 362.58176,493.96502 L 362.14976,495.69302 L 366.54176,496.05302 C 368.26976,496.19702 368.12576,497.20502 367.54976,499.50902 L 360.13376,528.95702 L 366.39776,528.09302"
         style="font-style:italic"
         id="path3009" />
      <path
         d="M 432.06963,528.09302 C 434.15763,520.74902 435.30964,516.57301 436.82163,512.75702 C 439.26963,506.49302 446.32564,495.69302 452.30163,495.69302 C 454.46163,495.69302 455.61363,497.27702 454.46163,501.74102 L 449.13363,521.90102 L 447.26163,528.95702 L 453.52563,528.09302 C 455.61363,520.74902 456.76564,516.57301 458.63763,512.18102 C 461.30163,506.06102 467.85364,495.69302 473.90163,495.69302 C 476.27763,495.69302 477.28563,497.63702 476.34963,500.73302 L 470.15763,521.90102 C 468.86164,526.36501 470.30164,528.95702 473.90163,528.95702 C 479.15763,528.95702 483.18964,524.06101 485.63763,518.58902 L 483.90963,517.58102 C 482.61364,520.10102 479.44563,525.21302 477.42963,525.21302 C 475.98964,525.21302 476.06163,523.55702 476.70963,521.25302 L 482.25363,502.38902 C 483.90963,496.70102 482.97363,491.94902 476.99763,491.94902 C 470.51764,491.94902 463.96563,497.92503 458.78163,507.21302 L 458.49363,507.21302 L 459.93363,502.67702 C 462.09363,495.76502 460.65363,491.94902 455.61363,491.94902 C 448.98964,491.94902 442.29363,498.14103 437.32563,507.21302 L 437.10963,507.21302 L 441.64563,492.30902 L 441.28563,491.94902 L 428.25363,493.96502 L 427.82163,495.69302 L 432.21363,496.05302 C 433.94163,496.19702 433.79763,497.20502 433.22163,499.50902 L 425.80563,528.95702 L 432.06963,528.09302"
         style="font-style:italic"
         id="path3011" />
      <path
         d="M 519.05351,496.05302 C 517.75751,501.38101 515.1655,508.50902 511.34951,514.26902 C 507.31751,520.38901 502.92551,525.21302 499.46951,525.21302 C 497.09351,525.21302 496.30151,522.98101 496.30151,520.17302 C 496.30151,512.25303 503.35752,494.46902 514.66151,494.46902 C 516.38951,494.46902 517.97351,495.04502 519.05351,496.05302 M 520.13351,492.52502 L 519.77351,493.46102 C 518.54951,492.59702 516.46151,491.94902 514.51751,491.94902 C 497.38153,491.94902 489.17351,510.88503 489.17351,520.38902 C 489.17351,524.70901 491.18951,528.95702 496.08551,528.95702 C 503.7895,528.95702 510.48551,520.02901 514.66151,512.68502 L 514.80551,512.68502 L 512.35751,520.89302 C 510.84551,526.00501 511.63751,528.95702 515.52551,528.95702 C 520.9975,528.95702 525.02951,524.06101 527.47751,518.58902 L 525.74951,517.58102 C 524.45351,520.10102 521.28551,525.21302 519.26951,525.21302 C 517.82951,525.21302 517.90151,523.55702 518.54951,521.25302 L 526.18151,492.52502 L 520.13351,492.52502"
         style="font-style:italic"
         id="path3013" />
      <path
         d="M 538.46088,528.09302 C 539.68488,523.41302 541.05288,517.58101 542.20488,513.40502 C 544.79688,503.97303 548.39689,497.78102 551.13288,497.78102 C 553.36488,497.78102 553.86889,499.58102 556.17288,499.58102 C 557.97288,499.58102 559.55688,497.20502 559.55688,495.11702 C 559.62888,493.17302 558.62088,491.94902 556.31688,491.94902 C 552.28489,491.94902 547.31688,496.48503 543.42888,504.26102 L 543.28488,504.26102 L 546.52488,492.30902 L 546.16488,491.94902 L 533.78088,493.96502 L 533.34888,495.69302 L 537.81288,496.05302 C 539.54088,496.19702 539.39688,497.20502 538.89288,499.50902 L 532.26888,528.95702 L 538.46088,528.09302"
         style="font-style:italic"
         id="path3015" />
    </g>
    <g
       style="font-size:72.3731308px;font-style:normal;font-variant:normal;font-weight:normal;font-stretch:normal;text-align:center;line-height:104.99999523%;letter-spacing:0px;word-spacing:0px;text-anchor:middle;fill:#000000;fill-opacity:1;stroke:none;font-family:DejaVu Sans;-inkscape-font-specification:Sans"
       id="text2995">
      <path
         d="M 325.65498,542.03057 L 327.85381,542.03057 L 320.57017,565.15958 L 318.37133,565.15958 L 325.65498,542.03057"
         style="font-size:28.14510918px;font-family:DejaVu Serif;-inkscape-font-specification:DejaVu Serif"
         id="path3018" />
      <path
         d="M 329.03569,562.54846 L 329.03569,561.09173 L 331.31698,561.09173 L 331.31698,542.6215 L 328.89826,542.6215 L 328.89826,541.16478 L 333.84564,541.16478 L 333.84564,550.53732 C 334.31289,549.54785 334.91757,548.80117 335.65968,548.29725 C 336.41095,547.79337 337.28132,547.54142 338.2708,547.5414 C 339.88327,547.54142 341.06973,548.00409 341.83017,548.92942 C 342.59059,549.85477 342.9708,551.29776 342.97082,553.25838 L 342.97082,561.09173 L 345.22462,561.09173 L 345.22462,562.54846 L 338.24332,562.54846 L 338.24332,561.09173 L 340.42841,561.09173 L 340.42841,554.05546 C 340.4284,552.26891 340.20852,551.05039 339.76876,550.39989 C 339.33814,549.74025 338.56397,549.41043 337.44624,549.41041 C 336.27352,549.41043 335.38024,549.83645 334.76641,550.68849 C 334.15256,551.54055 333.84564,552.78197 333.84564,554.41277 L 333.84564,561.09173 L 336.04448,561.09173 L 336.04448,562.54846 L 329.03569,562.54846"
         style="font-size:28.14510918px;font-family:DejaVu Serif;-inkscape-font-specification:DejaVu Serif"
         id="path3020" />
      <path
         d="M 348.75651,543.40484 C 348.7565,542.98342 348.90767,542.61694 349.21002,542.30542 C 349.52151,541.99394 349.89257,541.83819 350.32318,541.83817 C 350.74462,541.83819 351.10651,541.99394 351.40885,542.30542 C 351.72035,542.61694 351.8761,542.98342 351.87611,543.40484 C 351.8761,543.83546 351.72493,544.20194 351.4226,544.50426 C 351.12025,544.80662 350.75378,544.95779 350.32318,544.95777 C 349.89257,544.95779 349.52151,544.80662 349.21002,544.50426 C 348.90767,544.20194 348.7565,543.83546 348.75651,543.40484 M 351.98605,561.09173 L 354.37728,561.09173 L 354.37728,562.54846 L 347.03866,562.54846 L 347.03866,561.09173 L 349.45738,561.09173 L 349.45738,549.41041 L 347.03866,549.41041 L 347.03866,547.93994 L 351.98605,547.93994 L 351.98605,561.09173"
         style="font-size:28.14510918px;font-family:DejaVu Serif;-inkscape-font-specification:DejaVu Serif"
         id="path3022" />
      <path
         d="M 356.61734,561.73764 L 356.61734,558.32944 L 358.07407,558.32944 C 358.11072,559.4197 358.44971,560.2351 359.09104,560.77565 C 359.74152,561.3162 360.69893,561.58647 361.96327,561.58647 C 363.09932,561.58647 363.96512,561.37575 364.56064,560.95431 C 365.15615,560.5237 365.45391,559.9007 365.45392,559.08529 C 365.45391,558.44397 365.23403,557.92633 364.79427,557.53237 C 364.36365,557.13841 363.44747,556.71697 362.04572,556.26803 L 360.21794,555.64961 C 358.96277,555.2465 358.05117,554.7426 357.48314,554.13791 C 356.92426,553.53324 356.64483,552.76365 356.64483,551.82913 C 356.64483,550.49152 357.13499,549.44249 358.1153,548.68205 C 359.09561,547.92163 360.45156,547.54142 362.18315,547.5414 C 362.95274,547.54142 363.76356,547.6422 364.61561,547.84374 C 365.46765,548.04532 366.34719,548.33849 367.25422,548.72328 L 367.25422,551.91159 L 365.79749,551.91159 C 365.76083,550.96793 365.431,550.23041 364.80801,549.69901 C 364.185,549.16764 363.33753,548.90195 362.26561,548.90193 C 361.20283,548.90195 360.39659,549.08976 359.84689,549.46538 C 359.30633,549.84103 359.03606,550.40448 359.03607,551.15574 C 359.03606,551.76959 359.2422,552.26433 359.65449,552.63995 C 360.06676,553.00644 360.89133,553.38207 362.12818,553.76686 L 364.13462,554.38528 C 365.51804,554.81589 366.5121,555.35644 367.11679,556.00692 C 367.73062,556.64826 368.03754,557.4774 368.03755,558.49436 C 368.03754,559.87779 367.50615,560.96805 366.4434,561.76513 C 365.38978,562.55304 363.93305,562.947 362.07321,562.947 C 361.12953,562.947 360.20877,562.84622 359.31092,562.64466 C 358.41306,562.4431 357.5152,562.14076 356.61734,561.73764"
         style="font-size:28.14510918px;font-family:DejaVu Serif;-inkscape-font-specification:DejaVu Serif"
         id="path3024" />
      <path
         d="M 372.53143,549.41041 L 370.3051,549.41041 L 370.3051,547.93994 L 372.53143,547.93994 L 372.53143,543.40484 L 375.07383,543.40484 L 375.07383,547.93994 L 379.82881,547.93994 L 379.82881,549.41041 L 375.07383,549.41041 L 375.07383,558.68676 C 375.07383,559.9236 375.19293,560.7161 375.43114,561.06425 C 375.66934,561.4124 376.10911,561.58647 376.75044,561.58647 C 377.41009,561.58647 377.89108,561.39407 378.19343,561.00928 C 378.49576,560.61532 378.65609,559.98316 378.67443,559.11278 L 380.58467,559.11278 C 380.51136,560.44125 380.14947,561.4124 379.49899,562.02624 C 378.84849,562.64008 377.85902,562.947 376.53056,562.947 C 375.07383,562.947 374.04312,562.62634 373.43845,561.98501 C 372.83376,561.33452 372.53142,560.2351 372.53143,558.68676 L 372.53143,549.41041"
         style="font-size:28.14510918px;font-family:DejaVu Serif;-inkscape-font-specification:DejaVu Serif"
         id="path3026" />
      <path
         d="M 385.17474,541.57706 L 393.39289,541.57706 L 393.39289,543.61098 L 385.17474,543.61098 L 385.17474,541.57706 M 389.28381,561.58647 C 390.63975,561.58647 391.66129,561.05051 392.34844,559.97857 C 393.04473,558.90664 393.39288,557.32623 393.39289,555.23733 C 393.39288,553.14844 393.04473,551.57261 392.34844,550.50983 C 391.66129,549.43791 390.63975,548.90195 389.28381,548.90193 C 387.92786,548.90195 386.90173,549.43791 386.20544,550.50983 C 385.5183,551.57261 385.17473,553.14844 385.17474,555.23733 C 385.17473,557.32623 385.52288,558.90664 386.21918,559.97857 C 386.91548,561.05051 387.93702,561.58647 389.28381,561.58647 M 389.28381,562.947 C 387.15826,562.947 385.44959,562.24612 384.15777,560.84436 C 382.86596,559.43345 382.22005,557.56444 382.22005,555.23733 C 382.22005,552.91024 382.86138,551.04581 384.14403,549.64404 C 385.43584,548.2423 387.1491,547.54142 389.28381,547.5414 C 391.41851,547.54142 393.12718,548.2423 394.40985,549.64404 C 395.70165,551.04581 396.34756,552.91024 396.34758,555.23733 C 396.34756,557.56444 395.70165,559.43345 394.40985,560.84436 C 393.12718,562.24612 391.41851,562.947 389.28381,562.947"
         style="font-size:28.14510918px;font-family:DejaVu Serif;-inkscape-font-specification:DejaVu Serif"
         id="path3028" />
      <path
         d="M 400.6628,566.02537 L 400.6628,559.45635 L 402.69672,559.45635 L 402.69672,566.02537 L 400.6628,566.02537"
         style="font-size:28.14510918px;font-family:DejaVu Serif;-inkscape-font-specification:DejaVu Serif"
         id="path3030" />
      <path
         d="M 408.41369,547.74754 L 408.41369,541.17852 L 410.44761,541.17852 L 410.44761,547.74754 L 408.41369,547.74754"
         style="font-size:28.14510918px;font-family:DejaVu Serif;-inkscape-font-specification:DejaVu Serif"
         id="path3032" />
      <path
         d="M 420.7684,547.93994 L 430.44328,547.93994 L 430.44328,549.41041 L 428.02456,549.41041 L 428.02456,562.23238 C 428.02455,564.33043 427.44736,565.94749 426.29298,567.08356 C 425.13858,568.22878 423.49403,568.8014 421.35934,568.8014 C 420.39734,568.8014 419.47658,568.71436 418.59705,568.54029 C 417.71751,568.36621 416.87463,568.1051 416.06839,567.75696 L 416.06839,564.69233 L 417.38769,564.69233 C 417.5526,565.64515 417.94198,566.34145 418.55582,566.78122 C 419.16966,567.22099 420.04919,567.44087 421.19443,567.44087 C 422.67863,567.44087 423.76431,567.01943 424.45145,566.17654 C 425.14774,565.34281 425.49589,564.02809 425.4959,562.23238 L 425.4959,560.26717 C 425.00115,561.18335 424.36899,561.86133 423.59941,562.30109 C 422.83896,562.7317 421.8953,562.947 420.7684,562.947 C 418.97268,562.947 417.50221,562.23696 416.35699,560.81688 C 415.22092,559.38764 414.65289,557.52779 414.65289,555.23733 C 414.65289,553.21258 415.22092,551.49016 416.35699,550.07006 C 417.49305,548.65 418.96352,547.93996 420.7684,547.93994 M 425.4959,554.52271 L 425.50964,549.41041 L 421.55174,549.41041 C 420.25075,549.41043 419.26586,549.92349 418.59705,550.9496 C 417.9374,551.97573 417.60757,553.40498 417.60758,555.23733 C 417.60757,557.25294 417.9374,558.77838 418.59705,559.81366 C 419.26586,560.84895 420.25075,561.36659 421.55174,561.36659 C 422.83438,561.36659 423.81012,560.9085 424.47894,559.99231 C 425.1569,559.06697 425.49589,557.72477 425.4959,555.96569 L 425.4959,554.52271"
         style="font-size:28.14510918px;font-family:DejaVu Serif;-inkscape-font-specification:DejaVu Serif"
         id="path3034" />
      <path
         d="M 432.29856,562.57595 L 432.29856,558.92038 L 433.75529,558.92038 C 433.80109,559.64417 434.00265,560.18471 434.35997,560.54202 C 434.71727,560.89934 435.2395,561.07799 435.92664,561.07799 C 437.17264,561.07799 438.12547,560.64739 438.78512,559.78617 C 439.45393,558.92497 439.78834,557.68812 439.78834,556.07564 L 439.78834,549.39667 L 436.86114,549.39667 L 436.86114,547.93994 L 444.5983,547.93994 L 444.5983,549.39667 L 442.31701,549.39667 L 442.31701,561.10548 L 444.73573,561.10548 L 444.73573,562.54846 L 439.78834,562.54846 L 439.78834,559.95109 C 439.2936,560.96805 438.65685,561.7239 437.8781,562.21864 C 437.09934,562.70421 436.1511,562.947 435.03336,562.947 C 434.62107,562.947 434.18589,562.91493 433.7278,562.8508 C 433.27887,562.78667 432.80245,562.69505 432.29856,562.57595"
         style="font-size:28.14510918px;font-family:DejaVu Serif;-inkscape-font-specification:DejaVu Serif"
         id="path3036" />
      <path
         d="M 456.60944,557.95839 L 456.60944,554.86628 L 453.35242,554.86628 C 452.09724,554.86628 451.16274,555.13656 450.5489,555.6771 C 449.93505,556.21765 449.62813,557.04679 449.62814,558.16453 C 449.62813,559.1815 449.93963,559.98774 450.56264,560.58325 C 451.18564,561.17877 452.02853,561.47653 453.09131,561.47653 C 454.14491,561.47653 454.99237,561.15129 455.63371,560.5008 C 456.28419,559.85031 456.60943,559.00284 456.60944,557.95839 M 458.1074,560.48705 C 457.34696,561.32078 456.50407,561.9392 455.57874,562.34232 C 454.65339,562.74544 453.6181,562.947 452.47288,562.947 C 450.668,562.947 449.27082,562.53014 448.28135,561.69641 C 447.30103,560.86269 446.81088,559.6854 446.81088,558.16453 C 446.81088,556.65284 447.356,555.48013 448.44626,554.64639 C 449.54568,553.81268 451.08486,553.39581 453.06382,553.3958 L 456.60944,553.3958 L 456.60944,552.39259 C 456.60943,551.29318 456.27961,550.43655 455.61997,549.82269 C 454.96031,549.20887 454.04413,548.90195 452.87142,548.90193 C 451.80864,548.90195 450.97492,549.13099 450.37024,549.58907 C 449.76556,550.03801 449.38993,550.71598 449.24334,551.62299 L 447.93778,551.62299 L 447.93778,548.66831 C 448.81731,548.29269 449.66936,548.01325 450.49393,547.83 C 451.32765,547.63762 452.13847,547.54142 452.92639,547.5414 C 454.2182,547.54142 455.30387,547.74298 456.18342,548.14608 C 457.0721,548.54005 457.7684,549.14931 458.27231,549.97386 C 458.95028,549.16764 459.72903,548.56296 460.60858,548.15982 C 461.4881,547.74756 462.46383,547.54142 463.53578,547.5414 C 465.74376,547.54142 467.43869,548.22397 468.62059,549.58907 C 469.80244,550.95419 470.4117,552.92856 470.44837,555.51218 L 459.56413,555.51218 L 459.56413,555.62213 C 459.56412,557.59192 459.93059,559.08072 460.66355,560.08851 C 461.40564,561.08715 462.50506,561.58647 463.9618,561.58647 C 465.07036,561.58647 465.97738,561.29787 466.68286,560.72068 C 467.39746,560.13432 467.89678,559.26853 468.18082,558.1233 L 470.201,558.1233 C 469.80702,559.72662 469.06491,560.9314 467.97468,561.73764 C 466.8844,562.54388 465.45974,562.947 463.70069,562.947 C 462.58293,562.947 461.54765,562.74086 460.59484,562.32858 C 459.65115,561.90714 458.82201,561.29329 458.1074,560.48705 M 467.47994,554.05546 C 467.42495,552.35137 467.06306,551.06871 466.39427,550.20749 C 465.7346,549.33713 464.78177,548.90195 463.53578,548.90193 C 462.37221,548.90195 461.45145,549.33713 460.77349,550.20749 C 460.10466,551.07788 459.70154,552.36053 459.56413,554.05546 L 467.47994,554.05546"
         style="font-size:28.14510918px;font-family:DejaVu Serif;-inkscape-font-specification:DejaVu Serif"
         id="path3038" />
      <path
         d="M 486.43116,550.78469 C 486.91672,549.71277 487.53514,548.90653 488.28643,548.36597 C 489.04684,547.81627 489.93095,547.54142 490.93877,547.5414 C 492.46878,547.54142 493.60942,548.01783 494.36071,548.97065 C 495.11196,549.91433 495.48759,551.34357 495.48762,553.25838 L 495.48762,561.09173 L 497.76891,561.09173 L 497.76891,562.54846 L 490.76012,562.54846 L 490.76012,561.09173 L 492.95895,561.09173 L 492.95895,553.54697 C 492.95893,552.05361 492.73905,550.99084 492.2993,550.35866 C 491.85951,549.72651 491.13115,549.41043 490.11421,549.41041 C 488.98729,549.41043 488.12608,549.83645 487.53058,550.68849 C 486.9442,551.54055 486.65103,552.78197 486.65104,554.41277 L 486.65104,561.09173 L 488.84988,561.09173 L 488.84988,562.54846 L 481.92354,562.54846 L 481.92354,561.09173 L 484.12238,561.09173 L 484.12238,553.45078 C 484.12237,551.99406 483.90248,550.95877 483.46273,550.34492 C 483.02295,549.72193 482.29459,549.41043 481.27763,549.41041 C 480.15072,549.41043 479.28951,549.83645 478.694,550.68849 C 478.10764,551.54055 477.81446,552.78197 477.81447,554.41277 L 477.81447,561.09173 L 480.0133,561.09173 L 480.0133,562.54846 L 473.00451,562.54846 L 473.00451,561.09173 L 475.2858,561.09173 L 475.2858,549.38293 L 472.86708,549.38293 L 472.86708,547.93994 L 477.81447,547.93994 L 477.81447,550.53732 C 478.28171,549.56618 478.87723,548.82407 479.60102,548.31099 C 480.3248,547.79795 481.14478,547.54142 482.06097,547.5414 C 483.19702,547.54142 484.14527,547.82543 484.90571,548.39345 C 485.66613,548.95234 486.17461,549.74941 486.43116,550.78469"
         style="font-size:28.14510918px;font-family:DejaVu Serif;-inkscape-font-specification:DejaVu Serif"
         id="path3040" />
      <path
         d="M 501.21835,561.11922 C 501.21835,560.60616 501.39242,560.17097 501.74057,559.81366 C 502.08872,559.45635 502.5239,559.2777 503.04613,559.27769 C 503.55003,559.2777 503.98063,559.45635 504.33795,559.81366 C 504.69525,560.17097 504.87391,560.60616 504.87392,561.11922 C 504.87391,561.62312 504.69525,562.05372 504.33795,562.41103 C 503.98063,562.76835 503.55003,562.947 503.04613,562.947 C 502.5239,562.947 502.08872,562.77293 501.74057,562.42478 C 501.39242,562.06747 501.21835,561.63228 501.21835,561.11922"
         style="font-size:28.14510918px;font-family:DejaVu Serif;-inkscape-font-specification:DejaVu Serif"
         id="path3042" />
      <path
         d="M 508.92801,554.97622 L 519.826,554.97622 L 519.826,554.86628 C 519.82598,552.89649 519.45493,551.4077 518.71284,550.39989 C 517.97072,549.40126 516.87588,548.90195 515.42832,548.90193 C 514.31974,548.90195 513.40814,549.19054 512.69352,549.76772 C 511.98806,550.35409 511.49332,551.21988 511.20931,552.3651 L 509.17538,552.3651 C 509.5785,550.76179 510.32061,549.55702 511.4017,548.75076 C 512.49195,547.94454 513.9212,547.54142 515.68943,547.5414 C 517.82413,547.54142 519.53739,548.24688 520.82922,549.65778 C 522.13018,551.05955 522.78067,552.92398 522.78068,555.25107 C 522.78067,557.55986 522.14392,559.4197 520.87044,560.83062 C 519.59694,562.24154 517.92491,562.947 515.85435,562.947 C 513.64634,562.947 511.95141,562.26445 510.76954,560.89933 C 509.58766,559.54339 508.97382,557.56902 508.92801,554.97622 M 511.91018,556.43295 C 511.96515,558.13705 512.32704,559.42428 512.99586,560.29465 C 513.6555,561.15587 514.60833,561.58647 515.85435,561.58647 C 517.01789,561.58647 517.93407,561.15129 518.60289,560.28091 C 519.27169,559.41054 519.67939,558.12789 519.826,556.43295 L 511.91018,556.43295"
         style="font-size:28.14510918px;font-family:DejaVu Serif;-inkscape-font-specification:DejaVu Serif"
         id="path3044" />
      <path
         d="M 537.63657,547.91246 L 537.63657,551.56802 L 536.17985,551.56802 C 536.13402,550.84425 535.93246,550.3037 535.57517,549.94638 C 535.21784,549.58908 534.69562,549.41043 534.00849,549.41041 C 532.76248,549.41043 531.80507,549.84103 531.13626,550.70223 C 530.47661,551.56345 530.14678,552.8003 530.14679,554.41277 L 530.14679,561.09173 L 533.07399,561.09173 L 533.07399,562.54846 L 525.33683,562.54846 L 525.33683,561.09173 L 527.61812,561.09173 L 527.61812,549.38293 L 525.1994,549.38293 L 525.1994,547.93994 L 530.14679,547.93994 L 530.14679,550.53732 C 530.64152,549.52037 531.27826,548.7691 532.05703,548.28351 C 532.83577,547.78879 533.78402,547.54142 534.90177,547.5414 C 535.31404,547.54142 535.74465,547.57348 536.19359,547.6376 C 536.65167,547.70175 537.13266,547.79337 537.63657,547.91246"
         style="font-size:28.14510918px;font-family:DejaVu Serif;-inkscape-font-specification:DejaVu Serif"
         id="path3046" />
      <path
         d="M 544.93397,542.03057 L 547.13281,542.03057 L 539.84916,565.15958 L 537.65032,565.15958 L 544.93397,542.03057"
         style="font-size:28.14510918px;font-family:DejaVu Serif;-inkscape-font-specification:DejaVu Serif"
         id="path3048" />
    </g>
  </g>
</svg>
